<mxfile host="app.diagrams.net" agent="Mozilla/5.0 (Macintosh; Intel Mac OS X 10_15_7) AppleWebKit/605.1.15 (KHTML, like Gecko) Version/18.5 Safari/605.1.15" version="27.2.0" pages="3">
  <diagram id="KKGmfroxy93CsL8p-BHv" name="Rigel-Features">
    <mxGraphModel dx="901" dy="725" grid="1" gridSize="10" guides="1" tooltips="1" connect="1" arrows="1" fold="1" page="1" pageScale="1" pageWidth="850" pageHeight="1100" math="0" shadow="0">
      <root>
        <mxCell id="0" />
        <mxCell id="1" parent="0" />
        <mxCell id="0qH3fdDKlyZCcuzdt4p4-40" value="" style="rounded=1;whiteSpace=wrap;html=1;fillColor=#d5e8d4;strokeColor=#82b366;" vertex="1" parent="1">
          <mxGeometry x="813" y="690" width="462" height="250" as="geometry" />
        </mxCell>
        <mxCell id="0qH3fdDKlyZCcuzdt4p4-122" value="" style="rounded=1;whiteSpace=wrap;html=1;fillColor=#e1d5e7;strokeColor=#9673a6;" vertex="1" parent="1">
          <mxGeometry x="813" y="540" width="342" height="130" as="geometry" />
        </mxCell>
        <mxCell id="0qH3fdDKlyZCcuzdt4p4-102" value="" style="rounded=1;whiteSpace=wrap;html=1;fillColor=#e1d5e7;strokeColor=#9673a6;" vertex="1" parent="1">
          <mxGeometry x="813" y="260" width="342" height="130" as="geometry" />
        </mxCell>
        <mxCell id="0qH3fdDKlyZCcuzdt4p4-11" value="" style="rounded=1;whiteSpace=wrap;html=1;fillColor=#fff2cc;strokeColor=#d6b656;" vertex="1" parent="1">
          <mxGeometry x="473" y="50" width="322" height="230" as="geometry" />
        </mxCell>
        <mxCell id="0qH3fdDKlyZCcuzdt4p4-1" value="" style="rounded=1;whiteSpace=wrap;html=1;dashed=1;dashPattern=1 4;" vertex="1" parent="1">
          <mxGeometry x="583" y="370" width="182" height="150" as="geometry" />
        </mxCell>
        <mxCell id="0qH3fdDKlyZCcuzdt4p4-2" value="Nexabin.Rigel" style="text;html=1;align=center;verticalAlign=middle;resizable=0;points=[];autosize=1;strokeColor=none;fillColor=none;" vertex="1" parent="1">
          <mxGeometry x="623" y="430" width="100" height="30" as="geometry" />
        </mxCell>
        <mxCell id="0qH3fdDKlyZCcuzdt4p4-7" value="" style="group" vertex="1" connectable="0" parent="1">
          <mxGeometry x="673" y="190" width="102" height="70" as="geometry" />
        </mxCell>
        <mxCell id="0qH3fdDKlyZCcuzdt4p4-8" value="" style="rounded=1;whiteSpace=wrap;html=1;" vertex="1" parent="0qH3fdDKlyZCcuzdt4p4-7">
          <mxGeometry width="102" height="70" as="geometry" />
        </mxCell>
        <mxCell id="0qH3fdDKlyZCcuzdt4p4-9" value="Lessons" style="text;html=1;align=center;verticalAlign=middle;resizable=0;points=[];autosize=1;strokeColor=none;fillColor=none;" vertex="1" parent="0qH3fdDKlyZCcuzdt4p4-7">
          <mxGeometry x="15.003333333333336" y="20.00333333333333" width="70" height="30" as="geometry" />
        </mxCell>
        <mxCell id="0qH3fdDKlyZCcuzdt4p4-12" value="Courses" style="text;html=1;align=center;verticalAlign=middle;resizable=0;points=[];autosize=1;strokeColor=none;fillColor=none;" vertex="1" parent="1">
          <mxGeometry x="598" y="150" width="70" height="30" as="geometry" />
        </mxCell>
        <mxCell id="0qH3fdDKlyZCcuzdt4p4-13" value="" style="group" vertex="1" connectable="0" parent="1">
          <mxGeometry x="844" y="417" width="122" height="90" as="geometry" />
        </mxCell>
        <mxCell id="0qH3fdDKlyZCcuzdt4p4-14" value="" style="rounded=1;whiteSpace=wrap;html=1;fillColor=#fff2cc;strokeColor=#d6b656;" vertex="1" parent="0qH3fdDKlyZCcuzdt4p4-13">
          <mxGeometry width="122" height="90" as="geometry" />
        </mxCell>
        <mxCell id="0qH3fdDKlyZCcuzdt4p4-15" value="Subscription" style="text;html=1;align=center;verticalAlign=middle;resizable=0;points=[];autosize=1;strokeColor=none;fillColor=none;" vertex="1" parent="0qH3fdDKlyZCcuzdt4p4-13">
          <mxGeometry x="15" y="30" width="90" height="30" as="geometry" />
        </mxCell>
        <mxCell id="0qH3fdDKlyZCcuzdt4p4-127" value="9" style="ellipse;whiteSpace=wrap;html=1;aspect=fixed;rotation=0;gradientColor=#C35500;strokeColor=none;gradientDirection=east;fillColor=#FFB300;rounded=0;pointerEvents=0;fontFamily=Helvetica;fontSize=16;fontColor=#FFFFFF;spacingTop=4;spacingBottom=4;spacingLeft=4;spacingRight=4;points=[];fontStyle=1" vertex="1" parent="0qH3fdDKlyZCcuzdt4p4-13">
          <mxGeometry width="32" height="30" as="geometry" />
        </mxCell>
        <mxCell id="0qH3fdDKlyZCcuzdt4p4-17" value="" style="group" vertex="1" connectable="0" parent="1">
          <mxGeometry x="1004" y="417" width="122" height="90" as="geometry" />
        </mxCell>
        <mxCell id="0qH3fdDKlyZCcuzdt4p4-18" value="" style="rounded=1;whiteSpace=wrap;html=1;fillColor=#d5e8d4;strokeColor=#82b366;" vertex="1" parent="0qH3fdDKlyZCcuzdt4p4-17">
          <mxGeometry width="122" height="90" as="geometry" />
        </mxCell>
        <mxCell id="0qH3fdDKlyZCcuzdt4p4-19" value="Subscription&lt;div&gt;Management&lt;/div&gt;" style="text;html=1;align=center;verticalAlign=middle;resizable=0;points=[];autosize=1;strokeColor=none;fillColor=none;" vertex="1" parent="0qH3fdDKlyZCcuzdt4p4-17">
          <mxGeometry x="15" y="25" width="90" height="40" as="geometry" />
        </mxCell>
        <mxCell id="0qH3fdDKlyZCcuzdt4p4-128" value="10" style="ellipse;whiteSpace=wrap;html=1;aspect=fixed;rotation=0;gradientColor=#C35500;strokeColor=none;gradientDirection=east;fillColor=#FFB300;rounded=0;pointerEvents=0;fontFamily=Helvetica;fontSize=16;fontColor=#FFFFFF;spacingTop=4;spacingBottom=4;spacingLeft=4;spacingRight=4;points=[];fontStyle=1" vertex="1" parent="0qH3fdDKlyZCcuzdt4p4-17">
          <mxGeometry x="-1" width="32" height="30" as="geometry" />
        </mxCell>
        <mxCell id="0qH3fdDKlyZCcuzdt4p4-20" value="" style="group" vertex="1" connectable="0" parent="1">
          <mxGeometry x="1003" y="280" width="122" height="90" as="geometry" />
        </mxCell>
        <mxCell id="0qH3fdDKlyZCcuzdt4p4-21" value="" style="rounded=1;whiteSpace=wrap;html=1;fillColor=#d5e8d4;strokeColor=#82b366;" vertex="1" parent="0qH3fdDKlyZCcuzdt4p4-20">
          <mxGeometry width="122" height="90" as="geometry" />
        </mxCell>
        <mxCell id="0qH3fdDKlyZCcuzdt4p4-22" value="User&lt;div&gt;Management&lt;/div&gt;" style="text;html=1;align=center;verticalAlign=middle;resizable=0;points=[];autosize=1;strokeColor=none;fillColor=none;" vertex="1" parent="0qH3fdDKlyZCcuzdt4p4-20">
          <mxGeometry x="15" y="25" width="90" height="40" as="geometry" />
        </mxCell>
        <mxCell id="0qH3fdDKlyZCcuzdt4p4-112" value="5" style="ellipse;whiteSpace=wrap;html=1;aspect=fixed;rotation=0;gradientColor=#C35500;strokeColor=none;gradientDirection=east;fillColor=#FFB300;rounded=0;pointerEvents=0;fontFamily=Helvetica;fontSize=16;fontColor=#FFFFFF;spacingTop=4;spacingBottom=4;spacingLeft=4;spacingRight=4;points=[];fontStyle=1" vertex="1" parent="0qH3fdDKlyZCcuzdt4p4-20">
          <mxGeometry width="32" height="30" as="geometry" />
        </mxCell>
        <mxCell id="0qH3fdDKlyZCcuzdt4p4-24" value="" style="group" vertex="1" connectable="0" parent="1">
          <mxGeometry x="843" y="120" width="122" height="90" as="geometry" />
        </mxCell>
        <mxCell id="0qH3fdDKlyZCcuzdt4p4-25" value="Course Management" style="rounded=1;whiteSpace=wrap;html=1;fillColor=#d5e8d4;strokeColor=#82b366;" vertex="1" parent="0qH3fdDKlyZCcuzdt4p4-24">
          <mxGeometry width="122" height="90" as="geometry" />
        </mxCell>
        <mxCell id="0qH3fdDKlyZCcuzdt4p4-113" value="3" style="ellipse;whiteSpace=wrap;html=1;aspect=fixed;rotation=0;gradientColor=#C35500;strokeColor=none;gradientDirection=east;fillColor=#FFB300;rounded=0;pointerEvents=0;fontFamily=Helvetica;fontSize=16;fontColor=#FFFFFF;spacingTop=4;spacingBottom=4;spacingLeft=4;spacingRight=4;points=[];fontStyle=1" vertex="1" parent="0qH3fdDKlyZCcuzdt4p4-24">
          <mxGeometry width="32" height="30" as="geometry" />
        </mxCell>
        <mxCell id="0qH3fdDKlyZCcuzdt4p4-67" value="Legend" style="shape=table;startSize=30;container=1;collapsible=0;childLayout=tableLayout;fontSize=16;align=left;verticalAlign=top;fillColor=none;strokeColor=none;fontColor=#4D4D4D;fontStyle=1;spacingLeft=6;spacing=0;resizable=0;" vertex="1" parent="1">
          <mxGeometry x="1059" y="54" width="180" height="120" as="geometry" />
        </mxCell>
        <mxCell id="0qH3fdDKlyZCcuzdt4p4-68" value="" style="shape=tableRow;horizontal=0;startSize=0;swimlaneHead=0;swimlaneBody=0;strokeColor=inherit;top=0;left=0;bottom=0;right=0;collapsible=0;dropTarget=0;fillColor=none;points=[[0,0.5],[1,0.5]];portConstraint=eastwest;fontSize=12;" vertex="1" parent="0qH3fdDKlyZCcuzdt4p4-67">
          <mxGeometry y="30" width="180" height="30" as="geometry" />
        </mxCell>
        <mxCell id="0qH3fdDKlyZCcuzdt4p4-69" value="User page" style="shape=partialRectangle;html=1;whiteSpace=wrap;connectable=0;strokeColor=#d6b656;overflow=hidden;fillColor=#fff2cc;top=0;left=0;bottom=0;right=0;pointerEvents=1;fontSize=12;align=left;spacingLeft=10;spacingRight=4;" vertex="1" parent="0qH3fdDKlyZCcuzdt4p4-68">
          <mxGeometry width="180" height="30" as="geometry">
            <mxRectangle width="180" height="30" as="alternateBounds" />
          </mxGeometry>
        </mxCell>
        <mxCell id="0qH3fdDKlyZCcuzdt4p4-70" value="" style="shape=tableRow;horizontal=0;startSize=0;swimlaneHead=0;swimlaneBody=0;strokeColor=inherit;top=0;left=0;bottom=0;right=0;collapsible=0;dropTarget=0;fillColor=none;points=[[0,0.5],[1,0.5]];portConstraint=eastwest;fontSize=12;" vertex="1" parent="0qH3fdDKlyZCcuzdt4p4-67">
          <mxGeometry y="60" width="180" height="30" as="geometry" />
        </mxCell>
        <mxCell id="0qH3fdDKlyZCcuzdt4p4-71" value="Rigel Admin Page" style="shape=partialRectangle;html=1;whiteSpace=wrap;connectable=0;strokeColor=#82b366;overflow=hidden;fillColor=#d5e8d4;top=0;left=0;bottom=0;right=0;pointerEvents=1;fontSize=12;align=left;spacingLeft=10;spacingRight=4;" vertex="1" parent="0qH3fdDKlyZCcuzdt4p4-70">
          <mxGeometry width="180" height="30" as="geometry">
            <mxRectangle width="180" height="30" as="alternateBounds" />
          </mxGeometry>
        </mxCell>
        <mxCell id="0qH3fdDKlyZCcuzdt4p4-72" value="" style="shape=tableRow;horizontal=0;startSize=0;swimlaneHead=0;swimlaneBody=0;strokeColor=inherit;top=0;left=0;bottom=0;right=0;collapsible=0;dropTarget=0;fillColor=none;points=[[0,0.5],[1,0.5]];portConstraint=eastwest;fontSize=12;" vertex="1" parent="0qH3fdDKlyZCcuzdt4p4-67">
          <mxGeometry y="90" width="180" height="30" as="geometry" />
        </mxCell>
        <mxCell id="0qH3fdDKlyZCcuzdt4p4-73" value="Common Nexabin Service" style="shape=partialRectangle;html=1;whiteSpace=wrap;connectable=0;strokeColor=#9673a6;overflow=hidden;fillColor=#e1d5e7;top=0;left=0;bottom=0;right=0;pointerEvents=1;fontSize=12;align=left;spacingLeft=10;spacingRight=4;" vertex="1" parent="0qH3fdDKlyZCcuzdt4p4-72">
          <mxGeometry width="180" height="30" as="geometry">
            <mxRectangle width="180" height="30" as="alternateBounds" />
          </mxGeometry>
        </mxCell>
        <mxCell id="0qH3fdDKlyZCcuzdt4p4-37" value="" style="rounded=1;whiteSpace=wrap;html=1;fillColor=#fff2cc;strokeColor=#d6b656;" vertex="1" parent="1">
          <mxGeometry x="363" y="570" width="432" height="200" as="geometry" />
        </mxCell>
        <mxCell id="0qH3fdDKlyZCcuzdt4p4-60" value="" style="group" vertex="1" connectable="0" parent="1">
          <mxGeometry x="523" y="590" width="132" height="160" as="geometry" />
        </mxCell>
        <mxCell id="0qH3fdDKlyZCcuzdt4p4-61" value="" style="rounded=1;whiteSpace=wrap;html=1;" vertex="1" parent="0qH3fdDKlyZCcuzdt4p4-60">
          <mxGeometry width="122" height="160" as="geometry" />
        </mxCell>
        <mxCell id="0qH3fdDKlyZCcuzdt4p4-62" value="User - Course&lt;div&gt;Relation&lt;/div&gt;" style="text;html=1;align=center;verticalAlign=middle;resizable=0;points=[];autosize=1;strokeColor=none;fillColor=none;" vertex="1" parent="0qH3fdDKlyZCcuzdt4p4-60">
          <mxGeometry x="10" width="100" height="40" as="geometry" />
        </mxCell>
        <mxCell id="0qH3fdDKlyZCcuzdt4p4-80" value="ex -&amp;nbsp;&lt;div&gt;&lt;ol&gt;&lt;li&gt;progress&lt;br&gt;&lt;/li&gt;&lt;li&gt;score&lt;br&gt;&lt;/li&gt;&lt;li&gt;time spent&lt;br&gt;&lt;/li&gt;&lt;/ol&gt;&lt;/div&gt;" style="text;html=1;align=left;verticalAlign=middle;resizable=0;points=[];autosize=1;strokeColor=none;fillColor=none;" vertex="1" parent="0qH3fdDKlyZCcuzdt4p4-60">
          <mxGeometry x="10" y="60" width="120" height="90" as="geometry" />
        </mxCell>
        <mxCell id="0qH3fdDKlyZCcuzdt4p4-63" value="" style="group" vertex="1" connectable="0" parent="1">
          <mxGeometry x="653" y="590" width="142" height="160" as="geometry" />
        </mxCell>
        <mxCell id="0qH3fdDKlyZCcuzdt4p4-64" value="" style="rounded=1;whiteSpace=wrap;html=1;" vertex="1" parent="0qH3fdDKlyZCcuzdt4p4-63">
          <mxGeometry width="122" height="160" as="geometry" />
        </mxCell>
        <mxCell id="0qH3fdDKlyZCcuzdt4p4-81" value="Course Stats" style="text;html=1;align=center;verticalAlign=middle;resizable=0;points=[];autosize=1;strokeColor=none;fillColor=none;" vertex="1" parent="0qH3fdDKlyZCcuzdt4p4-63">
          <mxGeometry x="15" y="10" width="90" height="30" as="geometry" />
        </mxCell>
        <mxCell id="0qH3fdDKlyZCcuzdt4p4-82" value="ex -&amp;nbsp;&lt;div&gt;&lt;ol&gt;&lt;li&gt;leaderboard&lt;br&gt;&lt;/li&gt;&lt;li&gt;score&lt;br&gt;&lt;/li&gt;&lt;li&gt;time spent&lt;br&gt;&lt;/li&gt;&lt;/ol&gt;&lt;/div&gt;" style="text;html=1;align=left;verticalAlign=middle;resizable=0;points=[];autosize=1;strokeColor=none;fillColor=none;" vertex="1" parent="0qH3fdDKlyZCcuzdt4p4-63">
          <mxGeometry x="10" y="60" width="130" height="90" as="geometry" />
        </mxCell>
        <mxCell id="0qH3fdDKlyZCcuzdt4p4-83" value="" style="group" vertex="1" connectable="0" parent="1">
          <mxGeometry x="383" y="590" width="152" height="160" as="geometry" />
        </mxCell>
        <mxCell id="0qH3fdDKlyZCcuzdt4p4-84" value="" style="rounded=1;whiteSpace=wrap;html=1;" vertex="1" parent="0qH3fdDKlyZCcuzdt4p4-83">
          <mxGeometry width="132" height="160" as="geometry" />
        </mxCell>
        <mxCell id="0qH3fdDKlyZCcuzdt4p4-85" value="User Stats" style="text;html=1;align=center;verticalAlign=middle;resizable=0;points=[];autosize=1;strokeColor=none;fillColor=none;" vertex="1" parent="0qH3fdDKlyZCcuzdt4p4-83">
          <mxGeometry x="20" y="5" width="80" height="30" as="geometry" />
        </mxCell>
        <mxCell id="0qH3fdDKlyZCcuzdt4p4-86" value="ex -&amp;nbsp;&lt;div&gt;&lt;ol&gt;&lt;li&gt;total score&lt;br&gt;&lt;/li&gt;&lt;li&gt;total time spent&lt;/li&gt;&lt;/ol&gt;&lt;/div&gt;" style="text;html=1;align=left;verticalAlign=middle;resizable=0;points=[];autosize=1;strokeColor=none;fillColor=none;" vertex="1" parent="0qH3fdDKlyZCcuzdt4p4-83">
          <mxGeometry y="80" width="140" height="80" as="geometry" />
        </mxCell>
        <mxCell id="0qH3fdDKlyZCcuzdt4p4-95" value="" style="group" vertex="1" connectable="0" parent="1">
          <mxGeometry x="843" y="560" width="122" height="90" as="geometry" />
        </mxCell>
        <mxCell id="0qH3fdDKlyZCcuzdt4p4-96" value="" style="rounded=1;whiteSpace=wrap;html=1;fillColor=#fff2cc;strokeColor=#d6b656;" vertex="1" parent="0qH3fdDKlyZCcuzdt4p4-95">
          <mxGeometry width="122" height="90" as="geometry" />
        </mxCell>
        <mxCell id="0qH3fdDKlyZCcuzdt4p4-97" value="Nexabin.Drive" style="text;html=1;align=center;verticalAlign=middle;resizable=0;points=[];autosize=1;strokeColor=none;fillColor=none;" vertex="1" parent="0qH3fdDKlyZCcuzdt4p4-95">
          <mxGeometry x="10" y="30" width="100" height="30" as="geometry" />
        </mxCell>
        <mxCell id="0qH3fdDKlyZCcuzdt4p4-123" value="6" style="ellipse;whiteSpace=wrap;html=1;aspect=fixed;rotation=0;gradientColor=#C35500;strokeColor=none;gradientDirection=east;fillColor=#FFB300;rounded=0;pointerEvents=0;fontFamily=Helvetica;fontSize=16;fontColor=#FFFFFF;spacingTop=4;spacingBottom=4;spacingLeft=4;spacingRight=4;points=[];fontStyle=1" vertex="1" parent="0qH3fdDKlyZCcuzdt4p4-95">
          <mxGeometry width="32" height="30" as="geometry" />
        </mxCell>
        <mxCell id="0qH3fdDKlyZCcuzdt4p4-98" value="" style="group" vertex="1" connectable="0" parent="1">
          <mxGeometry x="1003" y="560" width="122" height="90" as="geometry" />
        </mxCell>
        <mxCell id="0qH3fdDKlyZCcuzdt4p4-99" value="" style="rounded=1;whiteSpace=wrap;html=1;fillColor=#d5e8d4;strokeColor=#82b366;" vertex="1" parent="0qH3fdDKlyZCcuzdt4p4-98">
          <mxGeometry width="122" height="90" as="geometry" />
        </mxCell>
        <mxCell id="0qH3fdDKlyZCcuzdt4p4-100" value="Media&lt;div&gt;Management&lt;/div&gt;" style="text;html=1;align=center;verticalAlign=middle;resizable=0;points=[];autosize=1;strokeColor=none;fillColor=none;" vertex="1" parent="0qH3fdDKlyZCcuzdt4p4-98">
          <mxGeometry x="15" y="25" width="90" height="40" as="geometry" />
        </mxCell>
        <mxCell id="0qH3fdDKlyZCcuzdt4p4-124" value="7" style="ellipse;whiteSpace=wrap;html=1;aspect=fixed;rotation=0;gradientColor=#C35500;strokeColor=none;gradientDirection=east;fillColor=#FFB300;rounded=0;pointerEvents=0;fontFamily=Helvetica;fontSize=16;fontColor=#FFFFFF;spacingTop=4;spacingBottom=4;spacingLeft=4;spacingRight=4;points=[];fontStyle=1" vertex="1" parent="0qH3fdDKlyZCcuzdt4p4-98">
          <mxGeometry width="32" height="30" as="geometry" />
        </mxCell>
        <mxCell id="0qH3fdDKlyZCcuzdt4p4-4" value="" style="rounded=1;whiteSpace=wrap;html=1;fillColor=#fff2cc;strokeColor=#d6b656;" vertex="1" parent="1">
          <mxGeometry x="843" y="280" width="122" height="90" as="geometry" />
        </mxCell>
        <mxCell id="0qH3fdDKlyZCcuzdt4p4-5" value="Nexabin.Auth" style="text;html=1;align=center;verticalAlign=middle;resizable=0;points=[];autosize=1;strokeColor=none;fillColor=none;" vertex="1" parent="1">
          <mxGeometry x="853" y="310" width="100" height="30" as="geometry" />
        </mxCell>
        <mxCell id="0qH3fdDKlyZCcuzdt4p4-107" value="1" style="ellipse;whiteSpace=wrap;html=1;aspect=fixed;rotation=0;gradientColor=#C35500;strokeColor=none;gradientDirection=east;fillColor=#FFB300;rounded=0;pointerEvents=0;fontFamily=Helvetica;fontSize=16;fontColor=#FFFFFF;spacingTop=4;spacingBottom=4;spacingLeft=4;spacingRight=4;points=[];fontStyle=1" vertex="1" parent="1">
          <mxGeometry x="843" y="280" width="32" height="30" as="geometry" />
        </mxCell>
        <mxCell id="0qH3fdDKlyZCcuzdt4p4-111" value="4" style="ellipse;whiteSpace=wrap;html=1;aspect=fixed;rotation=0;gradientColor=#C35500;strokeColor=none;gradientDirection=east;fillColor=#FFB300;rounded=0;pointerEvents=0;fontFamily=Helvetica;fontSize=16;fontColor=#FFFFFF;spacingTop=4;spacingBottom=4;spacingLeft=4;spacingRight=4;points=[];fontStyle=1" vertex="1" parent="1">
          <mxGeometry x="479" y="54" width="32" height="30" as="geometry" />
        </mxCell>
        <mxCell id="0qH3fdDKlyZCcuzdt4p4-126" value="12" style="ellipse;whiteSpace=wrap;html=1;aspect=fixed;rotation=0;gradientColor=#C35500;strokeColor=none;gradientDirection=east;fillColor=#FFB300;rounded=0;pointerEvents=0;fontFamily=Helvetica;fontSize=16;fontColor=#FFFFFF;spacingTop=4;spacingBottom=4;spacingLeft=4;spacingRight=4;points=[];fontStyle=1" vertex="1" parent="1">
          <mxGeometry x="817" y="694" width="32" height="30" as="geometry" />
        </mxCell>
        <mxCell id="0qH3fdDKlyZCcuzdt4p4-55" value="" style="rounded=1;whiteSpace=wrap;html=1;" vertex="1" parent="1">
          <mxGeometry x="1134" y="730" width="122" height="90" as="geometry" />
        </mxCell>
        <mxCell id="0qH3fdDKlyZCcuzdt4p4-56" value="Subscription&lt;br&gt;&lt;div&gt;Analytics&lt;/div&gt;" style="text;html=1;align=center;verticalAlign=middle;resizable=0;points=[];autosize=1;strokeColor=none;fillColor=none;" vertex="1" parent="1">
          <mxGeometry x="1149" y="755" width="90" height="40" as="geometry" />
        </mxCell>
        <mxCell id="0qH3fdDKlyZCcuzdt4p4-46" value="" style="rounded=1;whiteSpace=wrap;html=1;" vertex="1" parent="1">
          <mxGeometry x="863" y="730" width="122" height="90" as="geometry" />
        </mxCell>
        <mxCell id="0qH3fdDKlyZCcuzdt4p4-47" value="User&lt;div&gt;Analytics&lt;/div&gt;" style="text;html=1;align=center;verticalAlign=middle;resizable=0;points=[];autosize=1;strokeColor=none;fillColor=none;" vertex="1" parent="1">
          <mxGeometry x="888" y="745" width="70" height="40" as="geometry" />
        </mxCell>
        <mxCell id="0qH3fdDKlyZCcuzdt4p4-42" value="" style="group" vertex="1" connectable="0" parent="1">
          <mxGeometry x="863.4878048780488" y="830" width="124.92682926829269" height="90" as="geometry" />
        </mxCell>
        <mxCell id="0qH3fdDKlyZCcuzdt4p4-43" value="" style="rounded=1;whiteSpace=wrap;html=1;" vertex="1" parent="0qH3fdDKlyZCcuzdt4p4-42">
          <mxGeometry width="124.92682926829269" height="90" as="geometry" />
        </mxCell>
        <mxCell id="0qH3fdDKlyZCcuzdt4p4-44" value="Course&lt;div&gt;Analytics&lt;/div&gt;" style="text;html=1;align=center;verticalAlign=middle;resizable=0;points=[];autosize=1;strokeColor=none;fillColor=none;" vertex="1" parent="0qH3fdDKlyZCcuzdt4p4-42">
          <mxGeometry x="25.609756097560975" y="25" width="70" height="40" as="geometry" />
        </mxCell>
        <mxCell id="0qH3fdDKlyZCcuzdt4p4-48" value="" style="group" vertex="1" connectable="0" parent="1">
          <mxGeometry x="997.6829268292684" y="730" width="124.92682926829269" height="90" as="geometry" />
        </mxCell>
        <mxCell id="0qH3fdDKlyZCcuzdt4p4-49" value="" style="rounded=1;whiteSpace=wrap;html=1;" vertex="1" parent="0qH3fdDKlyZCcuzdt4p4-48">
          <mxGeometry width="124.92682926829269" height="90" as="geometry" />
        </mxCell>
        <mxCell id="0qH3fdDKlyZCcuzdt4p4-50" value="Blog&lt;br&gt;&lt;div&gt;Analytics&lt;/div&gt;" style="text;html=1;align=center;verticalAlign=middle;resizable=0;points=[];autosize=1;strokeColor=none;fillColor=none;" vertex="1" parent="0qH3fdDKlyZCcuzdt4p4-48">
          <mxGeometry x="25.609756097560975" y="25" width="70" height="40" as="geometry" />
        </mxCell>
        <mxCell id="0qH3fdDKlyZCcuzdt4p4-51" value="" style="group" vertex="1" connectable="0" parent="1">
          <mxGeometry x="997.6829268292684" y="830" width="124.92682926829269" height="90" as="geometry" />
        </mxCell>
        <mxCell id="0qH3fdDKlyZCcuzdt4p4-52" value="" style="rounded=1;whiteSpace=wrap;html=1;" vertex="1" parent="0qH3fdDKlyZCcuzdt4p4-51">
          <mxGeometry width="124.92682926829269" height="90" as="geometry" />
        </mxCell>
        <mxCell id="0qH3fdDKlyZCcuzdt4p4-53" value="Resource&lt;br&gt;&lt;div&gt;Analytics&lt;/div&gt;" style="text;html=1;align=center;verticalAlign=middle;resizable=0;points=[];autosize=1;strokeColor=none;fillColor=none;" vertex="1" parent="0qH3fdDKlyZCcuzdt4p4-51">
          <mxGeometry x="25.609756097560975" y="25" width="70" height="40" as="geometry" />
        </mxCell>
        <mxCell id="0qH3fdDKlyZCcuzdt4p4-129" value="" style="group" vertex="1" connectable="0" parent="1">
          <mxGeometry x="403" y="350" width="122" height="90" as="geometry" />
        </mxCell>
        <mxCell id="0qH3fdDKlyZCcuzdt4p4-130" value="" style="rounded=1;whiteSpace=wrap;html=1;fillColor=#fff2cc;strokeColor=#d6b656;" vertex="1" parent="0qH3fdDKlyZCcuzdt4p4-129">
          <mxGeometry width="122" height="90" as="geometry" />
        </mxCell>
        <mxCell id="0qH3fdDKlyZCcuzdt4p4-131" value="UI Revamp" style="text;html=1;align=center;verticalAlign=middle;resizable=0;points=[];autosize=1;strokeColor=none;fillColor=none;" vertex="1" parent="0qH3fdDKlyZCcuzdt4p4-129">
          <mxGeometry x="20" y="30" width="80" height="30" as="geometry" />
        </mxCell>
        <mxCell id="0qH3fdDKlyZCcuzdt4p4-132" value="8" style="ellipse;whiteSpace=wrap;html=1;aspect=fixed;rotation=0;gradientColor=#C35500;strokeColor=none;gradientDirection=east;fillColor=#FFB300;rounded=0;pointerEvents=0;fontFamily=Helvetica;fontSize=16;fontColor=#FFFFFF;spacingTop=4;spacingBottom=4;spacingLeft=4;spacingRight=4;points=[];fontStyle=1" vertex="1" parent="0qH3fdDKlyZCcuzdt4p4-129">
          <mxGeometry width="32" height="30" as="geometry" />
        </mxCell>
        <mxCell id="0qH3fdDKlyZCcuzdt4p4-125" value="11" style="ellipse;whiteSpace=wrap;html=1;aspect=fixed;rotation=0;gradientColor=#C35500;strokeColor=none;gradientDirection=east;fillColor=#FFB300;rounded=0;pointerEvents=0;fontFamily=Helvetica;fontSize=16;fontColor=#FFFFFF;spacingTop=4;spacingBottom=4;spacingLeft=4;spacingRight=4;points=[];fontStyle=1" vertex="1" parent="1">
          <mxGeometry x="363" y="570" width="32" height="30" as="geometry" />
        </mxCell>
        <mxCell id="0qH3fdDKlyZCcuzdt4p4-135" value="" style="rounded=1;whiteSpace=wrap;html=1;fillColor=#e1d5e7;strokeColor=#9673a6;" vertex="1" parent="1">
          <mxGeometry x="425" y="795" width="342" height="130" as="geometry" />
        </mxCell>
        <mxCell id="0qH3fdDKlyZCcuzdt4p4-137" value="" style="group" vertex="1" connectable="0" parent="1">
          <mxGeometry x="458" y="817" width="122" height="90" as="geometry" />
        </mxCell>
        <mxCell id="0qH3fdDKlyZCcuzdt4p4-138" value="" style="rounded=1;whiteSpace=wrap;html=1;fillColor=#fff2cc;strokeColor=#d6b656;" vertex="1" parent="0qH3fdDKlyZCcuzdt4p4-137">
          <mxGeometry width="122" height="90" as="geometry" />
        </mxCell>
        <mxCell id="0qH3fdDKlyZCcuzdt4p4-139" value="Nexabin.Email" style="text;html=1;align=center;verticalAlign=middle;resizable=0;points=[];autosize=1;strokeColor=none;fillColor=none;" vertex="1" parent="0qH3fdDKlyZCcuzdt4p4-137">
          <mxGeometry x="10" y="30" width="100" height="30" as="geometry" />
        </mxCell>
        <mxCell id="0qH3fdDKlyZCcuzdt4p4-140" value="2" style="ellipse;whiteSpace=wrap;html=1;aspect=fixed;rotation=0;gradientColor=#C35500;strokeColor=none;gradientDirection=east;fillColor=#FFB300;rounded=0;pointerEvents=0;fontFamily=Helvetica;fontSize=16;fontColor=#FFFFFF;spacingTop=4;spacingBottom=4;spacingLeft=4;spacingRight=4;points=[];fontStyle=1" vertex="1" parent="0qH3fdDKlyZCcuzdt4p4-137">
          <mxGeometry width="32" height="30" as="geometry" />
        </mxCell>
        <mxCell id="0qH3fdDKlyZCcuzdt4p4-141" value="" style="group" vertex="1" connectable="0" parent="1">
          <mxGeometry x="618" y="817" width="122" height="90" as="geometry" />
        </mxCell>
        <mxCell id="0qH3fdDKlyZCcuzdt4p4-142" value="" style="rounded=1;whiteSpace=wrap;html=1;fillColor=#d5e8d4;strokeColor=#82b366;" vertex="1" parent="0qH3fdDKlyZCcuzdt4p4-141">
          <mxGeometry width="122" height="90" as="geometry" />
        </mxCell>
        <mxCell id="0qH3fdDKlyZCcuzdt4p4-143" value="&lt;div&gt;Notification&lt;/div&gt;&lt;div&gt;Management&lt;/div&gt;" style="text;html=1;align=center;verticalAlign=middle;resizable=0;points=[];autosize=1;strokeColor=none;fillColor=none;" vertex="1" parent="0qH3fdDKlyZCcuzdt4p4-141">
          <mxGeometry x="15" y="25" width="90" height="40" as="geometry" />
        </mxCell>
        <mxCell id="0qH3fdDKlyZCcuzdt4p4-144" value="13" style="ellipse;whiteSpace=wrap;html=1;aspect=fixed;rotation=0;gradientColor=#C35500;strokeColor=none;gradientDirection=east;fillColor=#FFB300;rounded=0;pointerEvents=0;fontFamily=Helvetica;fontSize=16;fontColor=#FFFFFF;spacingTop=4;spacingBottom=4;spacingLeft=4;spacingRight=4;points=[];fontStyle=1" vertex="1" parent="0qH3fdDKlyZCcuzdt4p4-141">
          <mxGeometry width="32" height="30" as="geometry" />
        </mxCell>
      </root>
    </mxGraphModel>
  </diagram>
  <diagram name="LearningModule" id="G2DahcP8PH1wN-Vs_R_d">
    <mxGraphModel dx="2066" dy="860" grid="1" gridSize="10" guides="1" tooltips="1" connect="1" arrows="1" fold="1" page="1" pageScale="1" pageWidth="850" pageHeight="1100" math="0" shadow="0">
      <root>
        <mxCell id="0" />
        <mxCell id="1" parent="0" />
        <mxCell id="Hl07vMiSNizbsuB7GENC-18" value="" style="rounded=1;whiteSpace=wrap;html=1;" parent="1" vertex="1">
          <mxGeometry x="10" y="10" width="1280" height="690" as="geometry" />
        </mxCell>
        <mxCell id="Hl07vMiSNizbsuB7GENC-1" value="" style="rounded=1;whiteSpace=wrap;html=1;dashed=1;fontSize=16;" parent="1" vertex="1">
          <mxGeometry x="50" y="50" width="550" height="580" as="geometry" />
        </mxCell>
        <mxCell id="Hl07vMiSNizbsuB7GENC-2" value="Header/ Title" style="rounded=1;whiteSpace=wrap;html=1;fontSize=16;" parent="1" vertex="1">
          <mxGeometry x="120" y="90" width="380" height="60" as="geometry" />
        </mxCell>
        <mxCell id="Hl07vMiSNizbsuB7GENC-3" value="Audio (background) - voice over" style="rounded=1;whiteSpace=wrap;html=1;fontSize=16;" parent="1" vertex="1">
          <mxGeometry x="120" y="170" width="380" height="60" as="geometry" />
        </mxCell>
        <mxCell id="Hl07vMiSNizbsuB7GENC-4" value="Progress" style="rounded=1;whiteSpace=wrap;html=1;fontSize=16;" parent="1" vertex="1">
          <mxGeometry x="120" y="250" width="380" height="60" as="geometry" />
        </mxCell>
        <mxCell id="Hl07vMiSNizbsuB7GENC-5" value="Principles 1&lt;div&gt;header&lt;/div&gt;&lt;div&gt;text&lt;/div&gt;&lt;div&gt;images&lt;/div&gt;" style="rounded=1;whiteSpace=wrap;html=1;fontSize=16;" parent="1" vertex="1">
          <mxGeometry x="120" y="325" width="120" height="90" as="geometry" />
        </mxCell>
        <mxCell id="Hl07vMiSNizbsuB7GENC-6" value="Principles 2" style="rounded=1;whiteSpace=wrap;html=1;fontSize=16;" parent="1" vertex="1">
          <mxGeometry x="250" y="340" width="120" height="60" as="geometry" />
        </mxCell>
        <mxCell id="Hl07vMiSNizbsuB7GENC-7" value="Principles 3" style="rounded=1;whiteSpace=wrap;html=1;fontSize=16;" parent="1" vertex="1">
          <mxGeometry x="380" y="340" width="120" height="60" as="geometry" />
        </mxCell>
        <mxCell id="Hl07vMiSNizbsuB7GENC-8" value="MCQ 1&lt;div&gt;- options&lt;/div&gt;&lt;div&gt;- correct answer&amp;nbsp;&lt;/div&gt;&lt;div&gt;- tips&lt;/div&gt;" style="rounded=1;whiteSpace=wrap;html=1;fontSize=16;" parent="1" vertex="1">
          <mxGeometry x="120" y="440" width="160" height="90" as="geometry" />
        </mxCell>
        <mxCell id="Hl07vMiSNizbsuB7GENC-9" value="MCQ 2" style="rounded=1;whiteSpace=wrap;html=1;fontSize=16;" parent="1" vertex="1">
          <mxGeometry x="300" y="440" width="160" height="90" as="geometry" />
        </mxCell>
        <mxCell id="Hl07vMiSNizbsuB7GENC-10" value="Summary/ Take Away" style="rounded=1;whiteSpace=wrap;html=1;fontSize=16;" parent="1" vertex="1">
          <mxGeometry x="120" y="550" width="380" height="60" as="geometry" />
        </mxCell>
        <mxCell id="Hl07vMiSNizbsuB7GENC-11" value="" style="ellipse;whiteSpace=wrap;html=1;" parent="1" vertex="1">
          <mxGeometry x="480" y="470" width="20" height="20" as="geometry" />
        </mxCell>
        <mxCell id="Hl07vMiSNizbsuB7GENC-12" value="" style="ellipse;whiteSpace=wrap;html=1;" parent="1" vertex="1">
          <mxGeometry x="510" y="470" width="20" height="20" as="geometry" />
        </mxCell>
        <mxCell id="Hl07vMiSNizbsuB7GENC-13" value="" style="ellipse;whiteSpace=wrap;html=1;" parent="1" vertex="1">
          <mxGeometry x="520" y="360" width="20" height="20" as="geometry" />
        </mxCell>
        <mxCell id="Hl07vMiSNizbsuB7GENC-14" value="" style="ellipse;whiteSpace=wrap;html=1;" parent="1" vertex="1">
          <mxGeometry x="550" y="360" width="20" height="20" as="geometry" />
        </mxCell>
        <mxCell id="Hl07vMiSNizbsuB7GENC-15" value="&lt;font style=&quot;font-size: 16px;&quot;&gt;Lesson 1&lt;/font&gt;" style="text;html=1;align=center;verticalAlign=middle;resizable=0;points=[];autosize=1;strokeColor=none;fillColor=none;" parent="1" vertex="1">
          <mxGeometry x="280" y="630" width="90" height="30" as="geometry" />
        </mxCell>
        <mxCell id="Hl07vMiSNizbsuB7GENC-16" value="" style="rounded=1;whiteSpace=wrap;html=1;dashed=1;fontSize=16;" parent="1" vertex="1">
          <mxGeometry x="650" y="50" width="550" height="580" as="geometry" />
        </mxCell>
        <mxCell id="Hl07vMiSNizbsuB7GENC-17" value="&lt;font style=&quot;font-size: 16px;&quot;&gt;Lesson 2&lt;/font&gt;" style="text;html=1;align=center;verticalAlign=middle;resizable=0;points=[];autosize=1;strokeColor=none;fillColor=none;" parent="1" vertex="1">
          <mxGeometry x="880" y="640" width="90" height="30" as="geometry" />
        </mxCell>
        <mxCell id="Hl07vMiSNizbsuB7GENC-19" value="Category" style="text;html=1;align=center;verticalAlign=middle;resizable=0;points=[];autosize=1;strokeColor=none;fillColor=none;" parent="1" vertex="1">
          <mxGeometry x="600" y="710" width="70" height="30" as="geometry" />
        </mxCell>
        <mxCell id="SZLgFXJMgvyMvX-tMX-D-1" value="&lt;font style=&quot;font-size: 16px;&quot;&gt;Analytics&lt;/font&gt;&lt;div&gt;&lt;font style=&quot;font-size: 16px;&quot;&gt;for User&lt;/font&gt;&lt;/div&gt;" style="rhombus;whiteSpace=wrap;html=1;" parent="1" vertex="1">
          <mxGeometry x="285" y="780" width="115" height="110" as="geometry" />
        </mxCell>
        <mxCell id="SZLgFXJMgvyMvX-tMX-D-2" value="&lt;font style=&quot;font-size: 16px;&quot;&gt;Time Spent&lt;/font&gt;&lt;div&gt;&lt;font style=&quot;font-size: 16px;&quot;&gt;Answered&lt;/font&gt;&lt;/div&gt;&lt;div&gt;&lt;font style=&quot;font-size: 16px;&quot;&gt;Score&lt;/font&gt;&lt;/div&gt;&lt;div&gt;&lt;font style=&quot;font-size: 16px;&quot;&gt;Progress&lt;/font&gt;&lt;/div&gt;" style="text;html=1;align=left;verticalAlign=middle;resizable=0;points=[];autosize=1;strokeColor=none;fillColor=none;" parent="1" vertex="1">
          <mxGeometry x="292.5" y="900" width="100" height="90" as="geometry" />
        </mxCell>
        <mxCell id="SZLgFXJMgvyMvX-tMX-D-3" value="&lt;font style=&quot;font-size: 16px;&quot;&gt;Analytics&lt;/font&gt;&lt;div&gt;&lt;font style=&quot;font-size: 16px;&quot;&gt;for Course&lt;/font&gt;&lt;/div&gt;" style="rhombus;whiteSpace=wrap;html=1;" parent="1" vertex="1">
          <mxGeometry x="560" y="780" width="115" height="110" as="geometry" />
        </mxCell>
        <mxCell id="SZLgFXJMgvyMvX-tMX-D-4" value="&lt;font style=&quot;font-size: 16px;&quot;&gt;Analytics&lt;/font&gt;&lt;div&gt;&lt;font style=&quot;font-size: 16px;&quot;&gt;for Admin&lt;/font&gt;&lt;/div&gt;" style="rhombus;whiteSpace=wrap;html=1;" parent="1" vertex="1">
          <mxGeometry x="850" y="780" width="115" height="110" as="geometry" />
        </mxCell>
        <mxCell id="SZLgFXJMgvyMvX-tMX-D-5" value="&lt;div style=&quot;text-align: left;&quot;&gt;&lt;font style=&quot;font-size: 16px;&quot;&gt;Admin Page - 7&lt;/font&gt;&lt;/div&gt;&lt;div style=&quot;text-align: left;&quot;&gt;&lt;font style=&quot;font-size: 16px;&quot;&gt;Public Page - 7&amp;nbsp;&lt;/font&gt;&lt;/div&gt;&lt;div style=&quot;text-align: left;&quot;&gt;&lt;font style=&quot;font-size: 16px;&quot;&gt;User Interaction - 7 ---&amp;gt;&lt;/font&gt;&lt;/div&gt;&lt;div style=&quot;text-align: left;&quot;&gt;&lt;font style=&quot;font-size: 16px;&quot;&gt;Analytics - 14&amp;nbsp;&lt;/font&gt;&lt;/div&gt;&lt;div style=&quot;text-align: left;&quot;&gt;&lt;font style=&quot;font-size: 16px;&quot;&gt;*Subscription 7&amp;nbsp;&lt;/font&gt;&lt;/div&gt;" style="text;html=1;align=center;verticalAlign=middle;resizable=0;points=[];autosize=1;strokeColor=none;fillColor=none;" parent="1" vertex="1">
          <mxGeometry x="50" y="940" width="190" height="110" as="geometry" />
        </mxCell>
      </root>
    </mxGraphModel>
  </diagram>
  <diagram id="BhzEYFCXX3AoJBTklsyD" name="Rigel-Design">
    <mxGraphModel dx="2275" dy="593" grid="1" gridSize="10" guides="1" tooltips="1" connect="1" arrows="1" fold="1" page="1" pageScale="1" pageWidth="850" pageHeight="1100" math="0" shadow="0">
      <root>
        <mxCell id="0" />
        <mxCell id="1" parent="0" />
        <mxCell id="rLVwqkFuJxBPkb-aTml0-1" value="" style="rounded=1;whiteSpace=wrap;html=1;" vertex="1" parent="1">
          <mxGeometry x="100" y="60" width="210" height="180" as="geometry" />
        </mxCell>
        <mxCell id="rLVwqkFuJxBPkb-aTml0-2" value="Nexabin.Auth" style="text;html=1;align=center;verticalAlign=middle;resizable=0;points=[];autosize=1;strokeColor=none;fillColor=none;" vertex="1" parent="1">
          <mxGeometry x="155" y="250" width="100" height="30" as="geometry" />
        </mxCell>
        <mxCell id="rLVwqkFuJxBPkb-aTml0-3" value="/user/register" style="text;html=1;align=left;verticalAlign=middle;resizable=0;points=[];autosize=1;strokeColor=none;fillColor=none;" vertex="1" parent="1">
          <mxGeometry x="120" y="105" width="90" height="30" as="geometry" />
        </mxCell>
        <mxCell id="rLVwqkFuJxBPkb-aTml0-4" value="/user/login" style="text;html=1;align=left;verticalAlign=middle;resizable=0;points=[];autosize=1;strokeColor=none;fillColor=none;" vertex="1" parent="1">
          <mxGeometry x="120" y="145" width="80" height="30" as="geometry" />
        </mxCell>
        <mxCell id="rLVwqkFuJxBPkb-aTml0-5" value="/user/password" style="text;html=1;align=left;verticalAlign=middle;resizable=0;points=[];autosize=1;strokeColor=none;fillColor=none;" vertex="1" parent="1">
          <mxGeometry x="120" y="165" width="100" height="30" as="geometry" />
        </mxCell>
        <mxCell id="rLVwqkFuJxBPkb-aTml0-6" value="/user/verifyemail" style="text;html=1;align=left;verticalAlign=middle;resizable=0;points=[];autosize=1;strokeColor=none;fillColor=none;" vertex="1" parent="1">
          <mxGeometry x="120" y="125" width="110" height="30" as="geometry" />
        </mxCell>
        <mxCell id="rLVwqkFuJxBPkb-aTml0-7" value="" style="rounded=1;whiteSpace=wrap;html=1;" vertex="1" parent="1">
          <mxGeometry x="100" y="320" width="210" height="180" as="geometry" />
        </mxCell>
        <mxCell id="rLVwqkFuJxBPkb-aTml0-8" value="Full Name&lt;div&gt;Email Address&lt;/div&gt;&lt;div&gt;Password&lt;/div&gt;&lt;div&gt;RegisteredClientIds&lt;/div&gt;" style="text;html=1;align=left;verticalAlign=middle;resizable=0;points=[];autosize=1;strokeColor=none;fillColor=none;" vertex="1" parent="1">
          <mxGeometry x="320" y="70" width="130" height="70" as="geometry" />
        </mxCell>
        <mxCell id="rLVwqkFuJxBPkb-aTml0-9" value="Nexabin.Entitlements" style="text;html=1;align=center;verticalAlign=middle;resizable=0;points=[];autosize=1;strokeColor=none;fillColor=none;" vertex="1" parent="1">
          <mxGeometry x="135" y="520" width="140" height="30" as="geometry" />
        </mxCell>
        <mxCell id="rLVwqkFuJxBPkb-aTml0-11" value="" style="rounded=1;whiteSpace=wrap;html=1;" vertex="1" parent="1">
          <mxGeometry x="-290" y="320" width="210" height="180" as="geometry" />
        </mxCell>
        <mxCell id="rLVwqkFuJxBPkb-aTml0-12" value="Nexabin.Rigel" style="text;html=1;align=center;verticalAlign=middle;resizable=0;points=[];autosize=1;strokeColor=none;fillColor=none;" vertex="1" parent="1">
          <mxGeometry x="-235" y="520" width="100" height="30" as="geometry" />
        </mxCell>
      </root>
    </mxGraphModel>
  </diagram>
</mxfile>
